<svg width="512" height="512" xmlns="http://www.w3.org/2000/svg">

 <g>
  <title>background</title>
  <rect fill="none" id="canvas_background" height="402" width="582" y="-1" x="-1"/>
 </g>
 <g>
  <title>Layer 1</title>
  <circle fill="#000fff" r="25" id="XMLID_368_" cy="471.628625" cx="66.735108"/>
  <path stroke="null" fill="#000fff" id="XMLID_367_" d="m506.464892,30.509102c-2.6,-15.824047 -13.4,-25.640816 -24.2,-21.831324l-84.5,29.450309c-6.1,2.197784 -11.2,8.35158 -13.8,16.849679l-58.3,370.253387l-298.5,0c-11.1,0 -20.1,13.186706 -20.1,29.450309s9,29.450309 20.1,29.450309l7.7,0c2.7,-23.882589 16.9,-42.343977 34,-42.343977s31.3,18.314869 34,42.343977l130.5,0c2.7,-23.882589 16.9,-42.343977 34,-42.343977c17.1,0 31.3,18.314869 34,42.343977l37.7,0c8,0 15.2,-6.886391 18.4,-17.728793l59.7,-374.355918l74.7,-26.080373c10.5,-3.662974 17.2,-19.633539 14.6,-35.457586z"/>
  <circle fill="#000fff" r="25" id="XMLID_366_" cy="473.758412" cx="267.264892"/>
  <rect stroke="null" fill="#000fff" y="182.016131" x="47.827953" width="227.498703" id="XMLID_362_" height="235.442284"/>
 </g>
</svg>