<?xml version="1.0" standalone="no"?><!DOCTYPE svg PUBLIC "-//W3C//DTD SVG 1.1//EN" "http://www.w3.org/Graphics/SVG/1.1/DTD/svg11.dtd"><svg class="icon" height="512" viewBox="0 0 1024 1024" version="1.1" xmlns="http://www.w3.org/2000/svg"><path d="M597.781169 14.586637v86.323087c194.887409 39.514884 341.589239 211.822359 341.589239 418.383595s-146.70183 378.82355-341.589239 418.383594v86.323087c242.21495-40.734201 426.963969-250.885645 426.963969-504.706681S839.996119 55.320838 597.781169 14.586637zM85.39731 519.293319c0-206.561235 146.70183-378.86871 341.589239-418.383595V14.586637C184.703859 55.320838 0 265.472282 0 519.293319s184.703859 463.972481 426.963969 504.706681v-86.323087c-194.864829-39.560044-341.566659-211.822359-341.566659-418.383594z m512.383859 256.169349V476.572084h127.531466L512.270959 220.967233l-213.086836 255.604851h127.757266v298.890584h170.83978z" fill="#203646" /></svg>